<svg version="1.1" id="Layer_1" xmlns="http://www.w3.org/2000/svg" xmlns:xlink="http://www.w3.org/1999/xlink" x="0px" y="0px"
	 width="100%" viewBox="0 0 1024 1024" enable-background="new 0 0 1024 1024" xml:space="preserve">
<path fill="#060302" opacity="1.000000" stroke="none" 
	d="
M676.000000,1025.000000 
	C450.666656,1025.000000 225.833328,1025.000000 1.000000,1025.000000 
	C1.000000,683.666687 1.000000,342.333344 1.000000,1.000000 
	C342.333344,1.000000 683.666687,1.000000 1025.000000,1.000000 
	C1025.000000,342.333344 1025.000000,683.666687 1025.000000,1025.000000 
	C908.833313,1025.000000 792.666687,1025.000000 676.000000,1025.000000 
M258.804230,581.706482 
	C258.888794,582.018188 259.052643,582.280273 259.538513,583.278137 
	C259.973419,586.726562 260.746307,590.171387 260.783844,593.624146 
	C260.934082,607.441711 260.838043,621.261902 260.866180,635.080994 
	C260.929932,666.377563 261.013275,697.674194 260.899445,729.895081 
	C260.967957,748.257690 261.036469,766.620361 261.024384,785.710510 
	C262.429626,790.683228 265.613770,793.048950 270.881683,793.033508 
	C304.339050,792.935303 337.796661,792.935913 371.254211,792.889038 
	C372.702362,792.887024 374.150330,792.737793 375.862885,792.642395 
	C375.862885,788.890259 375.862885,785.434998 376.021606,781.057190 
	C375.972015,774.046570 375.922455,767.035950 376.027191,759.347595 
	C375.975555,758.890076 375.923889,758.432495 376.029510,757.052490 
	C376.029510,748.985046 376.029510,740.917603 376.029510,732.679688 
	C362.487793,732.679688 349.559357,732.586670 336.633514,732.729248 
	C331.988495,732.780396 328.621796,731.164978 326.398621,726.036194 
	C326.272980,721.022644 326.147339,716.009094 326.234436,710.079529 
	C326.268219,672.659119 326.461609,635.237671 326.225861,597.818909 
	C326.165405,588.222656 325.439148,578.515381 323.800934,569.070374 
	C321.164398,553.869934 315.751556,539.654236 304.949341,527.428467 
	C304.651611,527.225647 304.353882,527.022827 304.052063,526.942505 
	C304.052063,526.942505 304.174500,526.938416 304.012115,526.388428 
	C303.711029,526.170715 303.409973,525.952942 303.101013,525.893311 
	C303.101013,525.893311 303.259094,525.885803 303.072296,525.334717 
	C302.759369,525.121582 302.446442,524.908447 302.126617,524.868896 
	C302.126617,524.868896 302.299927,524.856812 302.094360,524.310547 
	C301.774780,524.104126 301.455170,523.897766 301.143738,523.809631 
	C301.143738,523.809631 301.257629,523.776978 300.951843,523.148621 
	C296.902435,520.160461 292.994080,516.953674 288.773193,514.231384 
	C280.869812,509.134003 280.550354,499.199371 288.031097,493.625610 
	C293.590393,489.483398 298.784607,484.851227 304.708069,480.145752 
	C305.159546,479.445496 305.611023,478.745209 305.997437,478.009430 
	C305.997437,478.009430 306.048492,478.063599 306.620728,477.744049 
	C307.584991,476.295807 308.549255,474.847595 309.425354,473.342560 
	C309.425354,473.342560 309.428497,473.447418 309.869568,473.110565 
	C309.975616,472.762085 310.081696,472.413574 310.100739,472.081482 
	C310.100739,472.081482 310.130035,472.165009 310.677795,471.785797 
	C311.484955,470.210876 312.292114,468.635925 313.041626,467.050812 
	C313.041626,467.050812 313.083954,467.091644 313.652283,466.677185 
	C320.675629,452.933899 324.650757,438.340881 326.027771,422.143555 
	C326.287354,416.825562 326.766907,411.507782 326.771667,406.189575 
	C326.809052,364.383057 326.747437,322.576447 326.738739,280.769867 
	C326.737396,274.360413 328.236267,272.897736 334.712738,272.894470 
	C346.705139,272.888458 358.697540,272.928101 370.689941,272.947784 
	C372.435303,272.950653 374.180695,272.948212 375.849121,272.948212 
	C375.849121,252.756393 375.849121,233.308838 375.849121,213.275070 
	C370.354309,213.275070 365.065948,213.287628 359.777649,213.272980 
	C330.296631,213.191315 300.815674,213.088745 271.334595,213.027771 
	C264.465271,213.013565 260.872498,216.500809 260.592377,223.331406 
	C260.503693,225.493576 260.538910,227.661392 260.540497,229.826599 
	C260.585571,291.120972 260.653809,352.415314 260.630310,413.709656 
	C260.628906,417.338562 259.893829,420.967163 259.538361,424.587646 
	C259.538361,424.587646 259.570496,424.599976 259.137573,425.072388 
	C258.703522,426.034637 258.269470,426.996918 257.245087,428.267609 
	C253.835358,432.399567 249.496658,434.271881 244.110886,433.960266 
	C240.964752,433.778290 237.795242,433.854645 234.642090,433.971741 
	C229.118378,434.176880 225.002304,437.898773 224.996567,443.305939 
	C224.958786,478.861145 225.066574,514.416504 224.963760,550.898926 
	C224.953979,552.553711 224.985336,554.209839 224.927963,555.862976 
	C224.425323,570.348572 224.753845,575.133484 243.007919,574.021362 
	C249.052765,573.653015 254.071457,575.308960 258.029510,580.548767 
	C258.269531,580.779175 258.509521,581.009583 258.804230,581.706482 
M701.000000,275.000000 
	C701.000000,275.000000 700.963013,275.033691 701.107056,275.547882 
	C701.377991,275.762238 701.648926,275.976624 701.928223,276.095001 
	C701.928223,276.095001 701.831970,276.098816 701.881531,276.601135 
	C701.960571,276.749695 702.039673,276.898224 702.018677,277.822876 
	C702.086426,278.857025 702.154175,279.891205 702.066528,281.853577 
	C702.112061,286.249725 702.157593,290.645844 702.031555,295.957092 
	C702.025940,334.731445 701.872864,373.506592 702.089661,412.279694 
	C702.172729,427.133575 704.452393,441.730713 710.059326,456.403107 
	C710.353394,456.988129 710.694519,457.554504 710.934570,458.160919 
	C717.136292,473.828949 726.285828,486.951141 741.298645,495.658936 
	C743.790527,497.104279 744.431885,501.740021 745.502563,505.441589 
	C743.487671,508.230164 741.787354,511.338318 739.369812,513.717712 
	C736.928650,516.120361 733.538330,517.535522 730.974487,519.840149 
	C714.767700,534.408264 707.009583,553.183533 703.989441,575.025574 
	C703.553650,580.796814 703.117859,586.567993 702.298218,592.892212 
	C702.327881,593.548767 702.357544,594.205322 702.215332,595.802307 
	C702.267212,606.232849 702.319092,616.663452 702.174194,627.903809 
	C702.242188,629.564758 702.310181,631.225647 702.217590,633.824524 
	C702.272888,639.574829 702.328186,645.325195 702.223389,651.496277 
	C702.223389,651.496277 702.382874,651.917297 702.220276,652.636047 
	C702.273804,653.121460 702.327332,653.606812 702.184021,654.778809 
	C702.249023,655.483704 702.314026,656.188538 702.212708,657.830750 
	C702.275879,666.246826 702.339111,674.662903 702.202271,683.892029 
	C702.274536,685.558228 702.346802,687.224487 702.247437,689.822449 
	C702.304016,694.544434 702.360596,699.266479 702.220520,704.728760 
	C702.275574,705.488586 702.330627,706.248352 702.193787,707.926147 
	C702.175659,712.916687 702.170837,717.907288 702.136108,722.897705 
	C702.089783,729.552368 699.149963,732.568359 692.369385,732.642090 
	C683.719849,732.736206 675.068542,732.673706 666.418030,732.677185 
	C662.008301,732.678955 657.598511,732.677490 653.172974,732.677490 
	C653.172974,753.055908 653.172974,772.778259 653.172974,792.566223 
	C653.854126,792.730164 654.316040,792.938354 654.778076,792.938782 
	C689.047485,792.968323 723.316956,793.011230 757.586243,792.964050 
	C762.810974,792.956848 765.881042,789.798645 767.173035,783.067566 
	C767.201538,781.403320 767.254333,779.739014 767.254944,778.074768 
	C767.277222,716.626038 767.213074,655.177002 767.467896,593.729309 
	C767.488281,588.811890 769.704285,583.903564 771.258972,578.798828 
	C771.258972,578.798828 771.399597,578.416626 771.286377,578.256470 
	C771.286377,578.256470 771.337341,578.445862 771.906921,578.194458 
	C772.656189,577.499023 773.405457,576.803650 774.072998,576.091492 
	C774.072998,576.091492 774.068359,576.174866 774.719482,576.019836 
	C775.880798,575.402649 777.042175,574.785461 778.157898,574.144470 
	C778.157898,574.144470 778.187073,574.193542 779.100159,574.207031 
	C783.743286,574.150940 788.389954,574.188049 793.028748,574.015625 
	C799.086182,573.790466 802.832397,569.976135 803.030212,563.929138 
	C803.095032,561.948242 802.913940,559.959351 803.001831,557.051697 
	C803.013733,519.618958 803.035217,482.186188 803.028809,444.753418 
	C803.027588,437.621216 799.490417,434.147766 792.366516,433.923004 
	C787.236755,433.761200 782.112610,433.422852 776.359436,432.947479 
	C775.919250,432.922455 775.479004,432.897430 775.037109,432.952393 
	C775.037109,432.952393 775.117004,432.947754 774.935181,432.425262 
	C774.627075,432.324097 774.319031,432.222900 773.380371,431.998352 
	C772.631714,431.651733 771.883118,431.305084 771.026917,430.212799 
	C766.992432,423.651917 766.934387,416.313354 767.036194,408.053955 
	C766.978638,387.701691 766.921021,367.349426 767.028442,346.073029 
	C767.033081,305.575745 767.057922,265.078430 767.025146,224.581192 
	C767.018677,216.584137 763.337463,213.010300 755.433044,213.008728 
	C722.935669,213.002258 690.438293,212.999863 657.940918,212.996017 
	C656.341675,212.995834 654.742432,212.996017 653.238525,212.996017 
	C653.238525,233.364136 653.238525,253.106232 653.238525,272.909393 
	C668.041565,272.909393 682.515747,272.909393 697.414917,273.118286 
	C697.414917,273.118286 697.882751,273.044647 698.303467,273.472992 
	C698.855347,273.694824 699.407166,273.916626 699.954224,274.047028 
	C699.954224,274.047028 699.863403,274.058655 700.057983,274.550262 
	C700.361206,274.712921 700.664429,274.875549 701.000000,275.000000 
M573.940918,595.251526 
	C573.892395,594.499634 573.843933,593.747742 573.962708,592.120544 
	C573.909180,589.749329 573.855591,587.378052 573.954590,584.080994 
	C573.910339,578.374207 573.866150,572.667358 573.980408,566.241516 
	C573.927185,565.511169 573.873901,564.780762 573.967163,563.360229 
	C573.918030,562.895081 573.868835,562.429871 573.978943,561.084961 
	C573.922485,558.408081 573.866028,555.731262 573.955750,552.120361 
	C573.912292,544.396851 573.868774,536.673279 573.986023,528.120972 
	C573.932129,526.436646 573.878296,524.752380 573.970520,522.157593 
	C573.921936,519.086487 573.873413,516.015320 573.989868,512.030701 
	C573.937622,505.380981 573.885437,498.731293 573.974243,491.301727 
	C573.927795,490.513519 573.881287,489.725281 573.996948,488.322662 
	C573.943420,487.906128 573.889832,487.489563 573.977295,486.135864 
	C573.925903,466.771820 573.874451,447.407806 573.977173,427.183655 
	C573.674500,419.139191 573.151245,411.095306 573.130188,403.050110 
	C573.108276,394.695282 573.572144,386.339233 573.979553,377.059448 
	C573.923157,354.973907 573.866760,332.888336 573.964539,310.032471 
	C573.903198,302.353516 573.841797,294.674591 573.942200,286.071381 
	C573.942200,252.837433 573.942200,219.603470 573.942200,186.248962 
	C569.093628,186.248962 564.944519,186.245178 560.795349,186.249588 
	C539.470459,186.272263 518.145447,186.280304 496.820648,186.328308 
	C486.481720,186.351593 481.646301,190.363922 479.676666,200.638443 
	C479.209930,203.073151 479.004669,205.593155 478.995544,208.075089 
	C478.875214,240.727753 478.785095,273.380585 478.748688,306.033447 
	C478.736420,317.020996 478.896759,328.008759 478.759613,339.912415 
	C478.836273,364.273468 478.912933,388.634491 478.766693,413.910370 
	C478.759308,424.864471 478.718842,435.818695 478.751740,446.772675 
	C478.812988,467.180176 478.916962,487.587524 478.787292,508.911285 
	C478.765808,536.495117 478.707672,564.079041 478.736145,591.662781 
	C478.754120,609.102295 478.901276,626.541626 478.762451,644.865479 
	C478.770538,649.886414 478.778656,654.907349 478.427216,660.669250 
	C478.112183,681.373047 471.896912,700.066345 459.075836,716.387024 
	C455.327545,721.158386 451.026520,725.495605 446.378052,730.428467 
	C443.383514,732.278076 442.658112,734.924316 442.681885,738.409668 
	C442.839996,761.568665 442.765320,784.729187 442.766327,807.889221 
	C442.766388,809.502808 442.766357,811.116394 442.766357,813.164001 
	C446.785706,812.572876 450.230408,812.193298 453.624573,811.547852 
	C495.091064,803.662476 525.947449,781.232300 546.513733,743.590576 
	C547.389648,741.755554 548.265625,739.920532 549.056641,738.071899 
	C549.056641,738.071899 549.100342,738.146057 549.624023,737.728455 
	C550.128052,736.498474 550.632080,735.268494 551.067078,734.053284 
	C551.067078,734.053284 551.108215,734.110779 551.635681,733.649536 
	C560.678467,714.667236 566.767273,694.783264 570.088745,673.124390 
	C570.178223,671.510254 570.196350,669.888367 570.369141,668.283203 
	C571.239868,660.192261 572.151062,652.105713 573.310303,643.321228 
	C573.381653,641.849487 573.452942,640.377686 573.788696,638.132751 
	C573.757446,636.778137 573.726196,635.423462 573.863220,633.136353 
	C573.834045,624.423706 573.804871,615.711060 573.933777,606.121765 
	C573.886353,603.750061 573.838928,601.378418 573.963867,598.262390 
	C573.906616,597.505981 573.849365,596.749634 573.940918,595.251526 
z"/>
<path fill="#49EEFC" opacity="1.000000" stroke="none" 
	d="
M259.500183,424.595917 
	C259.893829,420.967163 260.628906,417.338562 260.630310,413.709656 
	C260.653809,352.415314 260.585571,291.120972 260.540497,229.826599 
	C260.538910,227.661392 260.503693,225.493576 260.592377,223.331406 
	C260.872498,216.500809 264.465271,213.013565 271.334595,213.027771 
	C300.815674,213.088745 330.296631,213.191315 359.777649,213.272980 
	C365.065948,213.287628 370.354309,213.275070 375.849121,213.275070 
	C375.849121,233.308838 375.849121,252.756393 375.849121,272.948212 
	C374.180695,272.948212 372.435303,272.950653 370.689941,272.947784 
	C358.697540,272.928101 346.705139,272.888458 334.712738,272.894470 
	C328.236267,272.897736 326.737396,274.360413 326.738739,280.769867 
	C326.747437,322.576447 326.809052,364.383057 326.771667,406.189575 
	C326.766907,411.507782 326.287354,416.825562 325.714233,422.209229 
	C325.263397,414.518982 325.126099,406.763031 324.995117,398.537598 
	C324.995941,380.050690 324.990509,362.033234 324.989105,343.546173 
	C324.993866,329.433014 325.003113,315.789520 324.991669,302.145996 
	C324.986115,295.554077 323.662964,294.740326 317.152802,296.898712 
	C314.006256,297.941925 310.791504,298.897797 307.532318,299.443573 
	C305.124298,299.846802 302.594452,299.522797 300.118896,299.522797 
	C300.075562,299.905945 300.032227,300.289062 299.988892,300.672211 
	C298.706085,299.812439 297.423279,298.952667 295.346161,297.560547 
	C294.154053,299.565155 293.056641,301.410522 291.661774,303.756042 
	C290.278229,301.462860 289.650787,300.422882 289.460815,300.108032 
	C285.672821,300.316254 282.498901,301.049896 279.555939,300.514282 
	C275.667328,299.806580 272.713348,300.167847 270.517090,303.720032 
	C268.940765,306.269531 267.153015,305.945343 265.347961,303.839294 
	C264.655182,303.030975 263.811584,302.351898 262.024475,300.649872 
	C262.024475,319.928192 262.024475,337.975067 262.020752,356.488281 
	C262.021851,371.642334 262.026611,386.330017 262.025940,401.345154 
	C262.024017,402.109222 262.027557,402.545807 262.023010,403.385498 
	C262.019653,404.864807 262.024414,405.941010 262.024597,407.482544 
	C262.015564,411.035919 262.331055,414.168701 261.907745,417.198273 
	C261.554443,419.726929 260.335663,422.134644 259.500183,424.595917 
z"/>
<path fill="#2C9EF7" opacity="1.000000" stroke="none" 
	d="
M766.936096,783.974854 
	C765.881042,789.798645 762.810974,792.956848 757.586243,792.964050 
	C723.316956,793.011230 689.047485,792.968323 654.778076,792.938782 
	C654.316040,792.938354 653.854126,792.730164 653.172974,792.566223 
	C653.172974,772.778259 653.172974,753.055908 653.172974,732.677490 
	C657.598511,732.677490 662.008301,732.678955 666.418030,732.677185 
	C675.068542,732.673706 683.719849,732.736206 692.369385,732.642090 
	C699.149963,732.568359 702.089783,729.552368 702.136108,722.897705 
	C702.170837,717.907288 702.175659,712.916687 702.624878,707.485291 
	C704.550537,708.710144 706.054871,710.367249 707.537537,712.043396 
	C710.081726,714.919678 712.251282,716.875305 716.742737,714.255005 
	C719.879456,712.424866 724.476440,711.944641 728.159180,712.524658 
	C731.914062,713.116089 735.146667,713.493286 738.671387,711.831360 
	C739.881348,711.260864 742.677429,711.439758 743.058167,712.164551 
	C745.021362,715.901367 748.646118,715.196838 751.683411,715.936401 
	C754.539917,716.631897 757.820374,718.040100 760.275574,717.220764 
	C762.607361,716.442688 764.111938,713.185608 765.982483,711.485352 
	C765.996338,734.038513 765.985352,756.124878 766.059204,778.211060 
	C766.065613,780.133240 766.630615,782.053650 766.936096,783.974854 
z"/>
<path fill="#4DF4F7" opacity="1.000000" stroke="none" 
	d="
M478.978210,338.996429 
	C478.896759,328.008759 478.736420,317.020996 478.748688,306.033447 
	C478.785095,273.380585 478.875214,240.727753 478.995544,208.075089 
	C479.004669,205.593155 479.209930,203.073151 479.676666,200.638443 
	C481.646301,190.363922 486.481720,186.351593 496.820648,186.328308 
	C518.145447,186.280304 539.470459,186.272263 560.795349,186.249588 
	C564.944519,186.245178 569.093628,186.248962 573.942200,186.248962 
	C573.942200,219.603470 573.942200,252.837433 573.509644,286.377167 
	C572.718872,285.132660 572.100647,283.590515 572.051636,282.030487 
	C571.910400,277.535431 571.886719,273.029388 572.036133,268.534973 
	C572.137329,265.492493 571.305054,263.936584 567.879517,263.923187 
	C560.913818,263.895966 553.941040,263.181549 546.986328,263.355652 
	C534.497681,263.668213 522.023621,264.538971 509.535858,264.935242 
	C505.508728,265.063080 501.324615,263.661407 497.448181,264.329010 
	C491.443085,265.363159 486.118134,264.213562 480.001221,261.102234 
	C480.001221,278.852173 480.001221,295.927307 480.001587,313.470947 
	C479.997498,322.290253 479.993042,330.641083 479.736023,338.993774 
	C479.315094,338.995911 479.146637,338.996155 478.978210,338.996429 
M480.529938,244.987381 
	C480.422272,245.240952 480.294678,245.489182 480.224213,245.752686 
	C480.210602,245.803558 480.420441,245.914215 480.527161,245.997284 
	C480.611664,245.733414 480.696136,245.469543 480.529938,244.987381 
z"/>
<path fill="#4BF3FD" opacity="1.000000" stroke="none" 
	d="
M696.989929,272.909363 
	C682.515747,272.909393 668.041565,272.909393 653.238525,272.909393 
	C653.238525,253.106232 653.238525,233.364136 653.238525,212.996017 
	C654.742432,212.996017 656.341675,212.995834 657.940918,212.996017 
	C690.438293,212.999863 722.935669,213.002258 755.433044,213.008728 
	C763.337463,213.010300 767.018677,216.584137 767.025146,224.581192 
	C767.057922,265.078430 767.033081,305.575745 766.732544,346.533936 
	C766.436584,346.994843 766.009766,346.993591 766.007812,346.525848 
	C766.003845,339.705414 766.001953,333.352692 766.000977,326.531342 
	C766.001282,313.403961 766.004272,300.745209 765.998047,288.086487 
	C765.995728,283.457092 760.826050,276.904846 756.248718,276.144714 
	C750.857727,275.249481 745.423401,274.565308 739.984619,274.023224 
	C736.098083,273.635864 732.167786,273.428833 728.267334,273.531891 
	C725.730652,273.598938 722.685425,273.635162 720.805908,274.988159 
	C717.753479,277.185455 715.677490,277.617645 713.233337,274.505920 
	C710.771057,271.371094 708.052124,268.664368 703.651611,268.229523 
	C699.492554,267.818512 695.387634,266.877930 691.244751,266.265717 
	C690.657166,266.178894 689.987305,266.624603 689.359863,266.836761 
	C685.256592,268.224152 681.306213,269.393646 677.039062,266.766815 
	C675.721619,265.955780 673.322449,266.833466 671.429321,267.038055 
	C664.048157,267.835785 657.698059,266.075775 656.976013,258.275665 
	C656.856995,256.990479 656.280518,255.747650 655.915466,254.485260 
	C655.339722,254.546021 654.763977,254.606781 654.188232,254.667557 
	C654.188232,259.830322 654.096680,264.996796 654.305420,270.151093 
	C654.331177,270.786926 655.973511,271.893677 656.841187,271.869476 
	C661.490234,271.739929 666.131104,271.320953 671.412109,270.958221 
	C673.089905,271.172791 675.534912,271.605835 677.998169,271.776917 
	C684.324402,272.216370 690.658813,272.539673 696.989929,272.909363 
z"/>
<path fill="#2EA7F8" opacity="1.000000" stroke="none" 
	d="
M446.978821,730.031860 
	C451.026520,725.495605 455.327545,721.158386 459.075836,716.387024 
	C471.896912,700.066345 478.112183,681.373047 478.973022,660.411133 
	C480.056091,661.616089 480.398712,663.194946 481.182434,664.511230 
	C482.056274,665.978760 484.055115,668.494995 484.321533,668.345093 
	C487.742584,666.421143 490.218719,668.882751 493.074921,669.688904 
	C494.116577,669.982910 495.501709,669.113342 496.716461,668.731079 
	C501.309601,667.285522 506.284760,669.114014 510.919189,666.782776 
	C512.372803,666.051514 514.945007,667.943115 516.996521,667.918396 
	C521.352966,667.866028 525.713623,666.971008 530.054810,667.087036 
	C541.100098,667.382141 552.132629,668.127991 563.176575,668.511230 
	C566.990112,668.643616 569.294189,670.118408 569.848511,673.981323 
	C566.767273,694.783264 560.678467,714.667236 551.337524,733.542114 
	C549.630798,729.412964 548.145386,732.521057 547.037903,733.536316 
	C543.721313,736.577026 540.324036,737.745789 536.445801,734.651184 
	C534.198547,732.858032 532.304993,732.895935 529.703796,734.501465 
	C527.827881,735.659485 525.026123,735.741516 522.674377,735.614929 
	C517.995178,735.362976 513.306030,733.998108 508.685760,734.255737 
	C501.720978,734.644165 494.835266,736.332214 487.869781,736.872864 
	C483.900269,737.180908 479.840820,736.285278 475.818756,735.971069 
	C469.236420,735.456848 462.656799,734.708069 456.065826,734.578979 
	C452.094116,734.501160 448.857941,733.865723 446.978821,730.031860 
z"/>
<path fill="#3DD8FA" opacity="1.000000" stroke="none" 
	d="
M573.823608,377.983704 
	C573.572144,386.339233 573.108276,394.695282 573.130188,403.050110 
	C573.151245,411.095306 573.674500,419.139191 573.689819,427.939575 
	C573.191956,431.322388 572.981384,433.949249 572.771240,436.581604 
	C571.846069,436.638306 570.903381,436.594452 569.997803,436.757263 
	C566.227356,437.435272 562.490723,438.612946 558.700317,438.809814 
	C547.890320,439.371124 537.394836,434.357422 526.150818,438.311646 
	C518.735352,440.919525 510.118073,435.520447 502.300385,439.734344 
	C501.865906,439.968567 500.965485,439.208496 500.407043,439.363068 
	C495.655609,440.678467 489.882904,437.154846 486.352020,442.529877 
	C484.083221,439.839081 482.046722,437.423798 480.006226,434.589905 
	C480.005585,432.776978 480.008972,431.382690 480.319153,429.915527 
	C480.421997,428.899384 480.218018,427.956146 480.009888,426.547302 
	C479.996674,421.715271 479.987610,417.348816 479.982025,412.515503 
	C479.991058,397.366180 479.996582,382.683685 480.378235,368.071411 
	C483.926910,368.664734 487.094055,369.585449 490.273163,369.628784 
	C497.048767,369.721191 503.830444,369.354248 510.610107,369.195465 
	C510.923126,369.188141 511.236359,369.441284 511.556793,369.462402 
	C518.614075,369.927124 525.676086,370.777222 532.729309,370.711121 
	C539.296936,370.649536 545.844727,369.412079 552.420959,369.057098 
	C558.633240,368.721771 564.871216,368.861237 571.572083,368.786560 
	C572.120422,371.026459 572.971985,374.505066 573.823608,377.983704 
z"/>
<path fill="#38CEF9" opacity="1.000000" stroke="none" 
	d="
M480.010223,435.008545 
	C482.046722,437.423798 484.083221,439.839081 486.352020,442.529877 
	C489.882904,437.154846 495.655609,440.678467 500.407043,439.363068 
	C500.965485,439.208496 501.865906,439.968567 502.300385,439.734344 
	C510.118073,435.520447 518.735352,440.919525 526.150818,438.311646 
	C537.394836,434.357422 547.890320,439.371124 558.700317,438.809814 
	C562.490723,438.612946 566.227356,437.435272 569.997803,436.757263 
	C570.903381,436.594452 571.846069,436.638306 572.771240,436.581604 
	C572.981384,433.949249 573.191956,431.322388 573.612793,428.369629 
	C573.874451,447.407806 573.925903,466.771820 573.749756,486.761536 
	C573.626465,487.903839 573.730652,488.420471 573.834839,488.937073 
	C573.881287,489.725281 573.927795,490.513519 573.692749,492.022675 
	C573.281494,495.838837 573.151733,498.934082 572.646729,502.037903 
	C568.192139,505.609375 563.519165,506.359985 558.367920,505.071503 
	C557.776733,504.923676 557.070251,505.309875 556.411743,505.345032 
	C553.292664,505.511627 550.094666,506.151093 547.065491,505.692535 
	C537.088623,504.182190 527.189392,502.438812 517.087097,504.842773 
	C515.415894,505.240448 513.495239,504.543243 511.685455,504.414062 
	C506.667419,504.055908 501.134644,502.234863 496.746246,503.738373 
	C489.957550,506.064240 484.380127,508.546539 480.462006,500.135406 
	C480.416626,500.038025 480.155518,500.041138 479.991699,499.581787 
	C479.989136,497.780823 479.989990,496.395355 480.117584,494.904541 
	C480.415680,494.469513 480.331604,494.200287 479.988831,493.523315 
	C479.993805,473.706329 480.002014,454.357422 480.010223,435.008545 
M572.970154,443.307922 
	C572.739502,443.063477 572.508911,442.819031 572.278320,442.574554 
	C572.213074,442.713593 572.092896,442.851990 572.091187,442.991791 
	C572.076294,444.211517 572.082581,445.431519 572.082581,446.651428 
	C572.336914,446.656342 572.591248,446.661224 572.845581,446.666107 
	C572.894592,445.746979 572.943604,444.827820 572.970154,443.307922 
M572.518738,452.782257 
	C572.569031,452.827820 572.619385,452.873383 572.518738,452.782257 
z"/>
<path fill="#2B9BF8" opacity="1.000000" stroke="none" 
	d="
M446.678467,730.230164 
	C448.857941,733.865723 452.094116,734.501160 456.065826,734.578979 
	C462.656799,734.708069 469.236420,735.456848 475.818756,735.971069 
	C479.840820,736.285278 483.900269,737.180908 487.869781,736.872864 
	C494.835266,736.332214 501.720978,734.644165 508.685760,734.255737 
	C513.306030,733.998108 517.995178,735.362976 522.674377,735.614929 
	C525.026123,735.741516 527.827881,735.659485 529.703796,734.501465 
	C532.304993,732.895935 534.198547,732.858032 536.445801,734.651184 
	C540.324036,737.745789 543.721313,736.577026 547.037903,733.536316 
	C548.145386,732.521057 549.630798,729.412964 551.073730,733.772705 
	C551.108215,734.110779 551.067078,734.053284 550.784790,734.205933 
	C550.035095,735.621155 549.567749,736.883606 549.100342,738.146057 
	C549.100342,738.146057 549.056641,738.071899 548.721924,738.060059 
	C542.792725,738.141968 547.202759,742.203064 546.010254,744.042480 
	C525.947449,781.232300 495.091064,803.662476 453.624573,811.547852 
	C450.230408,812.193298 446.785706,812.572876 442.766357,813.164001 
	C442.766357,811.116394 442.766388,809.502808 442.766327,807.889221 
	C442.765320,784.729187 442.839996,761.568665 442.681885,738.409668 
	C442.658112,734.924316 443.383514,732.278076 446.678467,730.230164 
z"/>
<path fill="#3AD1FA" opacity="1.000000" stroke="none" 
	d="
M776.985962,433.163269 
	C782.112610,433.422852 787.236755,433.761200 792.366516,433.923004 
	C799.490417,434.147766 803.027588,437.621216 803.028809,444.753418 
	C803.035217,482.186188 803.013733,519.618958 802.703491,557.166626 
	C802.270081,552.808350 802.106628,548.335815 802.006104,543.861938 
	C801.812988,535.258850 801.718323,526.653076 801.455139,518.052307 
	C801.334717,514.117859 801.383423,510.060577 800.342346,506.342712 
	C800.024414,505.207397 796.287354,505.137878 794.202759,504.350830 
	C792.822205,503.829620 791.648621,502.777588 790.284546,502.190338 
	C789.095825,501.678589 787.370178,500.795959 786.569092,501.261017 
	C780.829102,504.593353 775.280396,501.679138 769.629456,501.231842 
	C761.489868,500.587616 753.287415,500.209351 745.928406,504.901428 
	C744.431885,501.740021 743.790527,497.104279 741.298645,495.658936 
	C726.285828,486.951141 717.136292,473.828949 710.934570,458.160919 
	C710.694519,457.554504 710.353394,456.988129 710.043579,455.617737 
	C709.636841,452.555878 709.278625,450.273132 708.848511,448.004028 
	C707.585022,441.338806 706.292908,434.679016 705.346863,428.099487 
	C706.487793,429.373199 707.064209,430.863037 708.146240,431.695526 
	C710.633789,433.609192 714.246521,437.247620 715.844116,436.560791 
	C721.731323,434.029938 727.453247,435.611908 733.216614,435.523315 
	C737.974060,435.450165 742.455994,437.030273 747.510986,436.661865 
	C752.295593,436.313202 757.291809,439.038940 762.952759,438.335388 
	C770.440247,437.404785 771.222168,437.384735 768.669678,430.341400 
	C769.612000,430.577301 770.373230,430.767883 771.134460,430.958435 
	C771.883118,431.305084 772.631714,431.651733 773.846497,432.238647 
	C774.549927,432.688110 774.818054,432.844391 775.117004,432.947754 
	C775.117004,432.947754 775.037109,432.952393 775.173706,433.117828 
	C775.868835,433.243256 776.427429,433.203247 776.985962,433.163269 
z"/>
<path fill="#35C3FA" opacity="1.000000" stroke="none" 
	d="
M479.995117,499.997314 
	C480.155518,500.041138 480.416626,500.038025 480.462006,500.135406 
	C484.380127,508.546539 489.957550,506.064240 496.746246,503.738373 
	C501.134644,502.234863 506.667419,504.055908 511.685455,504.414062 
	C513.495239,504.543243 515.415894,505.240448 517.087097,504.842773 
	C527.189392,502.438812 537.088623,504.182190 547.065491,505.692535 
	C550.094666,506.151093 553.292664,505.511627 556.411743,505.345032 
	C557.070251,505.309875 557.776733,504.923676 558.367920,505.071503 
	C563.519165,506.359985 568.192139,505.609375 572.647095,502.484375 
	C573.290039,506.262909 573.557495,509.603546 573.824890,512.944214 
	C573.873413,516.015320 573.921936,519.086487 573.698608,522.895020 
	C573.559570,525.404907 573.692444,527.177307 573.825317,528.949768 
	C573.868774,536.673279 573.912292,544.396851 573.675781,552.907471 
	C573.265198,555.800476 573.134521,557.906372 572.688660,559.869141 
	C569.501648,560.716492 566.629822,561.706970 563.193481,562.892151 
	C562.200256,562.726929 560.277161,562.439026 558.367371,562.080017 
	C556.659119,561.758850 554.972717,561.320679 553.263489,561.005554 
	C551.686890,560.714905 549.068665,559.818665 548.673462,560.396301 
	C546.213135,563.992432 542.878906,563.122986 539.660522,562.653809 
	C534.975586,561.971008 530.499268,560.514954 525.612671,562.663086 
	C523.114624,563.761353 519.422180,564.014893 516.967102,562.985901 
	C509.738678,559.956238 502.868011,563.227478 495.858032,563.271606 
	C492.108643,563.295166 488.277130,564.726257 484.659515,564.230957 
	C483.178284,564.028198 482.180115,560.405212 480.914185,558.367859 
	C480.776001,558.145447 480.318939,558.121094 480.005676,557.535645 
	C479.995178,540.705017 479.988739,524.343567 479.984680,507.539734 
	C479.989777,504.730682 479.992462,502.363983 479.995117,499.997314 
z"/>
<path fill="#35C0F9" opacity="1.000000" stroke="none" 
	d="
M257.962524,580.035828 
	C254.071457,575.308960 249.052765,573.653015 243.007919,574.021362 
	C224.753845,575.133484 224.425323,570.348572 224.927963,555.862976 
	C224.985336,554.209839 224.953979,552.553711 225.273651,550.094238 
	C225.726288,538.197754 225.869019,527.105896 226.366989,516.072876 
	C234.297745,521.273682 242.978546,520.150330 251.173553,519.528381 
	C261.854156,518.717773 272.037689,519.865173 282.415161,522.256165 
	C288.446503,523.645752 294.720245,526.836182 301.257629,523.776978 
	C301.257629,523.776978 301.143738,523.809631 301.266113,524.006348 
	C301.692291,524.421021 301.996124,524.638916 302.299927,524.856812 
	C302.299927,524.856812 302.126617,524.868896 302.251770,525.037720 
	C302.670959,525.432983 302.965027,525.659363 303.259094,525.885803 
	C303.259094,525.885803 303.101013,525.893311 303.224487,526.062622 
	C303.623474,526.467468 303.898987,526.702942 304.174500,526.938416 
	C304.174500,526.938416 304.052063,526.942505 304.183899,527.111938 
	C304.580811,527.507141 304.845856,527.732910 305.110931,527.958740 
	C315.751556,539.654236 321.164398,553.869934 323.800934,569.070374 
	C325.439148,578.515381 326.165405,588.222656 326.225861,597.818909 
	C326.461609,635.237671 326.268219,672.659119 325.877197,710.537842 
	C325.352692,710.995789 325.185455,710.995422 325.012695,710.532349 
	C325.001495,706.049622 324.995758,702.029724 324.996185,697.540039 
	C324.997925,674.384705 324.993500,651.699036 324.992676,628.543335 
	C324.523651,609.628784 326.452789,591.057434 322.212219,572.354004 
	C319.872437,577.468018 316.669342,577.039429 312.174042,575.997009 
	C309.427094,575.359985 305.334686,577.316711 302.904388,579.364136 
	C300.095642,581.730530 298.218567,582.460327 296.772888,580.666992 
	C293.487640,581.302673 291.165192,581.692627 288.871216,582.209229 
	C284.965607,583.088684 281.456390,582.867249 278.521240,579.593262 
	C278.054047,579.072083 276.352417,579.606018 275.230499,579.732239 
	C270.205811,580.297546 264.992981,582.684143 260.457977,578.150269 
	C260.362183,578.054504 258.899933,579.325562 258.046112,579.976929 
	C258.017059,579.994873 257.962524,580.035828 257.962524,580.035828 
z"/>
<path fill="#35C3FA" opacity="1.000000" stroke="none" 
	d="
M745.715454,505.171509 
	C753.287415,500.209351 761.489868,500.587616 769.629456,501.231842 
	C775.280396,501.679138 780.829102,504.593353 786.569092,501.261017 
	C787.370178,500.795959 789.095825,501.678589 790.284546,502.190338 
	C791.648621,502.777588 792.822205,503.829620 794.202759,504.350830 
	C796.287354,505.137878 800.024414,505.207397 800.342346,506.342712 
	C801.383423,510.060577 801.334717,514.117859 801.455139,518.052307 
	C801.718323,526.653076 801.812988,535.258850 802.006104,543.861938 
	C802.106628,548.335815 802.270081,552.808350 802.625183,557.627808 
	C802.913940,559.959351 803.095032,561.948242 803.030212,563.929138 
	C802.832397,569.976135 799.086182,573.790466 793.028748,574.015625 
	C788.389954,574.188049 783.743286,574.150940 778.828308,573.894653 
	C780.429321,572.764709 782.302185,571.947144 785.045288,570.749634 
	C783.345459,570.380676 782.484497,570.097900 781.605042,570.017822 
	C773.740967,569.301575 765.569092,569.720093 758.085938,567.646179 
	C749.151733,565.170105 740.317505,564.961792 731.315979,565.024048 
	C726.237793,565.059143 721.156616,565.242676 716.085815,565.523010 
	C713.295715,565.677307 710.524292,566.170471 707.535889,566.536377 
	C706.610596,568.722595 705.415894,571.545349 704.221191,574.368042 
	C707.009583,553.183533 714.767700,534.408264 730.974487,519.840149 
	C733.538330,517.535522 736.928650,516.120361 739.369812,513.717712 
	C741.787354,511.338318 743.487671,508.230164 745.715454,505.171509 
M795.285339,569.135864 
	C794.350891,569.367981 793.416504,569.600037 792.482056,569.832153 
	C792.507629,570.271606 792.533203,570.710999 792.558777,571.150452 
	C793.769531,571.229675 794.980286,571.308899 796.191040,571.388123 
	C796.101440,570.710876 796.011841,570.033691 795.285339,569.135864 
z"/>
<path fill="#42E3F9" opacity="1.000000" stroke="none" 
	d="
M573.901611,377.521576 
	C572.971985,374.505066 572.120422,371.026459 571.572083,368.786560 
	C564.871216,368.861237 558.633240,368.721771 552.420959,369.057098 
	C545.844727,369.412079 539.296936,370.649536 532.729309,370.711121 
	C525.676086,370.777222 518.614075,369.927124 511.556793,369.462402 
	C511.236359,369.441284 510.923126,369.188141 510.610107,369.195465 
	C503.830444,369.354248 497.048767,369.721191 490.273163,369.628784 
	C487.094055,369.585449 483.926910,368.664734 480.375549,367.602661 
	C479.994049,357.706390 479.991302,348.349152 479.988556,338.991882 
	C479.993042,330.641083 479.997498,322.290253 480.368591,313.528259 
	C485.822601,316.207458 491.166931,316.670410 496.953918,315.325500 
	C500.576355,314.483582 504.522736,313.708832 508.103424,314.281494 
	C516.345642,315.599731 524.569031,312.382324 532.820068,314.853729 
	C536.043884,315.819366 539.965393,314.476898 543.174561,315.465942 
	C548.405457,317.078003 553.113953,316.182587 558.063293,314.727081 
	C563.248535,313.202148 568.556213,312.093445 573.810425,310.802795 
	C573.866760,332.888336 573.923157,354.973907 573.901611,377.521576 
z"/>
<path fill="#32BBF9" opacity="1.000000" stroke="none" 
	d="
M480.009766,558.004883 
	C480.318939,558.121094 480.776001,558.145447 480.914185,558.367859 
	C482.180115,560.405212 483.178284,564.028198 484.659515,564.230957 
	C488.277130,564.726257 492.108643,563.295166 495.858032,563.271606 
	C502.868011,563.227478 509.738678,559.956238 516.967102,562.985901 
	C519.422180,564.014893 523.114624,563.761353 525.612671,562.663086 
	C530.499268,560.514954 534.975586,561.971008 539.660522,562.653809 
	C542.878906,563.122986 546.213135,563.992432 548.673462,560.396301 
	C549.068665,559.818665 551.686890,560.714905 553.263489,561.005554 
	C554.972717,561.320679 556.659119,561.758850 558.367371,562.080017 
	C560.277161,562.439026 562.200256,562.726929 563.193481,562.892151 
	C566.629822,561.706970 569.501648,560.716492 572.719177,560.140137 
	C573.316528,561.024353 573.568115,561.494507 573.819702,561.964722 
	C573.868835,562.429871 573.918030,562.895081 573.713135,563.914062 
	C573.580078,565.298828 573.700989,566.129700 573.821899,566.960571 
	C573.866150,572.667358 573.910339,578.374207 573.678833,584.543701 
	C573.403076,585.006470 573.004150,585.011475 572.790039,585.214722 
	C572.715210,586.277710 572.854370,587.137390 572.996155,588.413696 
	C572.999207,590.218872 572.999634,591.607483 572.788086,593.203613 
	C572.717224,594.274841 572.858337,595.138550 573.000000,596.376709 
	C573.000122,597.500244 572.999756,598.249268 572.758545,599.297852 
	C572.936951,602.064331 573.356323,604.531372 573.775635,606.998413 
	C573.804871,615.711060 573.834045,624.423706 573.605835,633.867310 
	C573.407043,636.034180 573.465637,637.470032 573.524231,638.905945 
	C573.452942,640.377686 573.381653,641.849487 572.915649,643.345703 
	C572.521057,632.196716 572.521057,621.023193 572.521057,610.411133 
	C568.588806,612.570496 565.721863,615.109558 562.514526,615.658081 
	C558.642273,616.320312 554.477112,615.003113 550.446289,615.061523 
	C542.386475,615.178223 534.331421,615.637024 526.275269,615.976013 
	C519.149414,616.275818 512.026917,616.769165 504.898895,616.860046 
	C500.516937,616.915955 495.763123,615.200806 491.838531,616.417358 
	C487.473450,617.770447 483.895630,617.679504 479.991852,615.529175 
	C479.995636,596.042175 480.002686,577.023499 480.009766,558.004883 
z"/>
<path fill="#30AEF9" opacity="1.000000" stroke="none" 
	d="
M765.980225,711.018555 
	C764.111938,713.185608 762.607361,716.442688 760.275574,717.220764 
	C757.820374,718.040100 754.539917,716.631897 751.683411,715.936401 
	C748.646118,715.196838 745.021362,715.901367 743.058167,712.164551 
	C742.677429,711.439758 739.881348,711.260864 738.671387,711.831360 
	C735.146667,713.493286 731.914062,713.116089 728.159180,712.524658 
	C724.476440,711.944641 719.879456,712.424866 716.742737,714.255005 
	C712.251282,716.875305 710.081726,714.919678 707.537537,712.043396 
	C706.054871,710.367249 704.550537,708.710144 702.720825,707.026306 
	C702.330627,706.248352 702.275574,705.488586 702.646606,704.176880 
	C703.380188,701.716187 703.948608,699.808228 703.954834,697.898499 
	C704.022400,677.239502 704.064575,656.579895 703.950745,635.921387 
	C703.928528,631.898376 704.923218,630.456360 709.180359,631.721558 
	C712.928894,632.835632 717.058838,634.112427 720.752136,633.551453 
	C724.311279,633.010864 727.508911,630.111267 731.125854,633.378235 
	C731.358154,633.588074 732.184570,633.468750 732.496826,633.212585 
	C737.484131,629.121094 742.057922,632.573181 746.797485,633.863220 
	C750.792419,634.950500 754.866699,635.746399 758.905823,636.671326 
	C758.734802,636.043823 758.563721,635.416321 758.392639,634.788818 
	C760.391663,631.938965 762.390625,629.089050 764.389648,626.239197 
	C764.919861,626.428101 765.450073,626.617004 765.980286,626.805969 
	C765.980286,654.876831 765.980286,682.947754 765.980225,711.018555 
z"/>
<path fill="#30B2F9" opacity="1.000000" stroke="none" 
	d="
M479.995117,615.997559 
	C483.895630,617.679504 487.473450,617.770447 491.838531,616.417358 
	C495.763123,615.200806 500.516937,616.915955 504.898895,616.860046 
	C512.026917,616.769165 519.149414,616.275818 526.275269,615.976013 
	C534.331421,615.637024 542.386475,615.178223 550.446289,615.061523 
	C554.477112,615.003113 558.642273,616.320312 562.514526,615.658081 
	C565.721863,615.109558 568.588806,612.570496 572.521057,610.411133 
	C572.521057,621.023193 572.521057,632.196716 572.784546,643.693909 
	C572.151062,652.105713 571.239868,660.192261 570.369141,668.283203 
	C570.196350,669.888367 570.178223,671.510254 569.968628,673.552856 
	C569.294189,670.118408 566.990112,668.643616 563.176575,668.511230 
	C552.132629,668.127991 541.100098,667.382141 530.054810,667.087036 
	C525.713623,666.971008 521.352966,667.866028 516.996521,667.918396 
	C514.945007,667.943115 512.372803,666.051514 510.919189,666.782776 
	C506.284760,669.114014 501.309601,667.285522 496.716461,668.731079 
	C495.501709,669.113342 494.116577,669.982910 493.074921,669.688904 
	C490.218719,668.882751 487.742584,666.421143 484.321533,668.345093 
	C484.055115,668.494995 482.056274,665.978760 481.182434,664.511230 
	C480.398712,663.194946 480.056091,661.616089 479.152832,660.040649 
	C478.778656,654.907349 478.770538,649.886414 479.130920,644.098633 
	C479.664642,634.220398 479.829865,625.109009 479.995117,615.997559 
z"/>
<path fill="#49EEFC" opacity="1.000000" stroke="none" 
	d="
M573.887451,310.417664 
	C568.556213,312.093445 563.248535,313.202148 558.063293,314.727081 
	C553.113953,316.182587 548.405457,317.078003 543.174561,315.465942 
	C539.965393,314.476898 536.043884,315.819366 532.820068,314.853729 
	C524.569031,312.382324 516.345642,315.599731 508.103424,314.281494 
	C504.522736,313.708832 500.576355,314.483582 496.953918,315.325500 
	C491.166931,316.670410 485.822601,316.207458 480.368225,313.059753 
	C480.001221,295.927307 480.001221,278.852173 480.001221,261.102234 
	C486.118134,264.213562 491.443085,265.363159 497.448181,264.329010 
	C501.324615,263.661407 505.508728,265.063080 509.535858,264.935242 
	C522.023621,264.538971 534.497681,263.668213 546.986328,263.355652 
	C553.941040,263.181549 560.913818,263.895966 567.879517,263.923187 
	C571.305054,263.936584 572.137329,265.492493 572.036133,268.534973 
	C571.886719,273.029388 571.910400,277.535431 572.051636,282.030487 
	C572.100647,283.590515 572.718872,285.132660 573.428772,286.839294 
	C573.841797,294.674591 573.903198,302.353516 573.887451,310.417664 
z"/>
<path fill="#32BBF9" opacity="1.000000" stroke="none" 
	d="
M765.982544,711.485352 
	C765.980286,682.947754 765.980286,654.876831 765.980286,626.805969 
	C765.450073,626.617004 764.919861,626.428101 764.389648,626.239197 
	C762.390625,629.089050 760.391663,631.938965 758.392639,634.788818 
	C758.563721,635.416321 758.734802,636.043823 758.905823,636.671326 
	C754.866699,635.746399 750.792419,634.950500 746.797485,633.863220 
	C742.057922,632.573181 737.484131,629.121094 732.496826,633.212585 
	C732.184570,633.468750 731.358154,633.588074 731.125854,633.378235 
	C727.508911,630.111267 724.311279,633.010864 720.752136,633.551453 
	C717.058838,634.112427 712.928894,632.835632 709.180359,631.721558 
	C704.923218,630.456360 703.928528,631.898376 703.950745,635.921387 
	C704.064575,656.579895 704.022400,677.239502 703.954834,697.898499 
	C703.948608,699.808228 703.380188,701.716187 702.744995,703.806702 
	C702.360596,699.266479 702.304016,694.544434 702.501343,689.067261 
	C702.637573,686.567749 702.519897,684.823364 702.402283,683.078979 
	C702.339111,674.662903 702.275879,666.246826 702.455688,657.159424 
	C702.592773,655.689514 702.486877,654.890869 702.380859,654.092224 
	C702.327332,653.606812 702.273804,653.121460 702.402710,652.192139 
	C702.706543,651.471436 702.639343,651.247192 702.383484,651.075500 
	C702.328186,645.325195 702.272888,639.574829 702.469971,633.069214 
	C702.605286,630.573914 702.488159,628.833984 702.371033,627.093994 
	C702.319092,616.663452 702.267212,606.232849 702.459961,595.047241 
	C702.697083,593.641174 702.689575,592.990234 702.682068,592.339233 
	C703.117859,586.567993 703.553650,580.796814 704.105347,574.696777 
	C705.415894,571.545349 706.610596,568.722595 707.535889,566.536377 
	C710.524292,566.170471 713.295715,565.677307 716.085815,565.523010 
	C721.156616,565.242676 726.237793,565.059143 731.315979,565.024048 
	C740.317505,564.961792 749.151733,565.170105 758.085938,567.646179 
	C765.569092,569.720093 773.740967,569.301575 781.605042,570.017822 
	C782.484497,570.097900 783.345459,570.380676 785.045288,570.749634 
	C782.302185,571.947144 780.429321,572.764709 778.371765,573.887939 
	C778.187073,574.193542 778.157898,574.144470 777.814331,574.124695 
	C776.336670,574.794861 775.202515,575.484863 774.068359,576.174866 
	C774.068359,576.174866 774.072998,576.091492 773.768188,576.121338 
	C772.754761,576.916077 772.046021,577.680969 771.337280,578.445801 
	C771.337341,578.445862 771.286377,578.256470 771.188232,578.304443 
	C771.090149,578.352478 770.766235,578.578430 770.766235,578.578430 
	C770.766235,578.578430 770.899902,578.991028 770.899902,578.991028 
	C769.704285,583.903564 767.488281,588.811890 767.467896,593.729309 
	C767.213074,655.177002 767.277222,716.626038 767.254944,778.074768 
	C767.254333,779.739014 767.201538,781.403320 767.054565,783.521240 
	C766.630615,782.053650 766.065613,780.133240 766.059204,778.211060 
	C765.985352,756.124878 765.996338,734.038513 765.982544,711.485352 
z"/>
<path fill="#3AD1FA" opacity="1.000000" stroke="none" 
	d="
M226.011749,516.014038 
	C225.869019,527.105896 225.726288,538.197754 225.355194,549.630737 
	C225.066574,514.416504 224.958786,478.861145 224.996567,443.305939 
	C225.002304,437.898773 229.118378,434.176880 234.642090,433.971741 
	C237.795242,433.854645 240.964752,433.778290 244.110886,433.960266 
	C249.496658,434.271881 253.835358,432.399567 257.852325,427.956116 
	C258.829865,426.629730 259.200195,425.614838 259.570496,424.599976 
	C259.570496,424.599976 259.538361,424.587646 259.519287,424.591797 
	C260.335663,422.134644 261.554443,419.726929 261.907745,417.198273 
	C262.331055,414.168701 262.015564,411.035919 262.353424,407.561218 
	C264.979309,408.889648 267.271301,412.066437 269.564301,412.067139 
	C279.595001,412.070251 289.628571,410.511932 299.630127,412.804657 
	C300.621185,413.031830 301.816772,412.217896 302.941559,412.039581 
	C305.921204,411.567291 308.952026,411.352081 311.891418,410.709503 
	C315.064850,410.015778 318.415802,409.404541 321.160858,407.833832 
	C322.286377,407.189819 321.804108,404.045685 322.478973,402.194031 
	C322.918854,400.987122 324.125610,400.059723 324.988831,399.007111 
	C325.126099,406.763031 325.263397,414.518982 325.618073,422.622498 
	C324.650757,438.340881 320.675629,452.933899 313.336609,466.545044 
	C311.405731,462.608521 310.307312,465.365112 309.281036,466.773468 
	C305.951904,471.342041 301.639221,471.291351 298.775513,466.679230 
	C298.346771,465.988678 296.709412,465.175507 296.634338,465.264648 
	C293.987762,468.404572 290.512146,466.322510 287.595306,466.437683 
	C281.972382,466.659698 276.287018,466.015747 270.665649,465.389008 
	C262.983063,464.532440 255.436737,462.942902 248.285034,467.959229 
	C242.612076,471.938385 234.197922,468.400330 231.795700,461.934753 
	C231.181625,460.281952 228.909042,459.245361 227.398438,457.925659 
	C226.936218,458.230774 226.473984,458.535889 226.011749,458.841003 
	C226.011749,477.898682 226.011749,496.956360 226.011749,516.014038 
z"/>
<path fill="#2C9EF7" opacity="1.000000" stroke="none" 
	d="
M324.990051,698.009766 
	C324.995758,702.029724 325.001495,706.049622 325.004669,710.999878 
	C324.999390,713.881165 324.807495,715.854797 325.037201,717.778015 
	C325.404755,720.855103 326.052002,723.898804 326.581024,726.956604 
	C328.621796,731.164978 331.988495,732.780396 336.633514,732.729248 
	C349.559357,732.586670 362.487793,732.679688 376.029510,732.679688 
	C376.029510,740.917603 376.029510,748.985046 375.739868,757.228271 
	C374.960938,755.984009 374.471649,754.563904 374.158752,753.655762 
	C370.979309,754.758362 368.470367,755.889282 365.840088,756.480652 
	C361.723053,757.406250 357.525696,757.977295 353.358124,758.673279 
	C352.545959,758.808899 351.710449,758.923828 350.892731,758.888062 
	C344.606689,758.613464 338.319702,758.345825 332.038757,757.977661 
	C328.949280,757.796570 325.856171,757.518311 322.793213,757.083557 
	C318.989655,756.543579 315.233429,755.648193 311.422699,755.188904 
	C308.766907,754.868835 306.053833,755.023987 303.366364,754.966797 
	C301.622711,756.649780 299.761169,758.357483 296.759460,754.748352 
	C296.316376,754.215576 294.908112,754.294373 293.977966,754.391663 
	C290.369690,754.769104 286.778809,755.315735 283.168671,755.668640 
	C282.654480,755.718933 281.848846,755.182861 281.554382,754.692322 
	C279.792053,751.756409 277.787201,750.004700 274.336884,752.462158 
	C274.051453,752.665405 273.144043,752.138855 272.604614,751.818481 
	C269.355347,749.888733 266.129089,747.920166 262.350586,745.635315 
	C262.234131,747.348022 262.023132,749.057861 262.017273,750.768433 
	C261.984222,760.411743 262.044800,770.055542 261.959656,779.698242 
	C261.944061,781.462219 261.403351,783.221497 261.105042,784.982971 
	C261.036469,766.620361 260.967957,748.257690 261.227234,729.095276 
	C261.704590,717.531128 261.854126,706.766785 262.341736,696.089111 
	C263.485962,697.363220 264.122192,698.730408 265.140533,699.693665 
	C266.472595,700.953735 268.383179,703.057190 269.564117,702.776306 
	C275.438904,701.378906 280.411316,704.214478 285.734863,705.383423 
	C286.986908,705.658386 288.323914,705.620422 289.620514,705.606506 
	C298.199646,705.514526 306.818726,702.942200 315.340515,706.487366 
	C318.199951,707.676880 322.692047,704.181213 323.391785,700.958923 
	C323.619659,699.909668 324.440460,698.989136 324.990051,698.009766 
z"/>
<path fill="#2B9BF8" opacity="1.000000" stroke="none" 
	d="
M261.064697,785.346741 
	C261.403351,783.221497 261.944061,781.462219 261.959656,779.698242 
	C262.044800,770.055542 261.984222,760.411743 262.017273,750.768433 
	C262.023132,749.057861 262.234131,747.348022 262.350586,745.635315 
	C266.129089,747.920166 269.355347,749.888733 272.604614,751.818481 
	C273.144043,752.138855 274.051453,752.665405 274.336884,752.462158 
	C277.787201,750.004700 279.792053,751.756409 281.554382,754.692322 
	C281.848846,755.182861 282.654480,755.718933 283.168671,755.668640 
	C286.778809,755.315735 290.369690,754.769104 293.977966,754.391663 
	C294.908112,754.294373 296.316376,754.215576 296.759460,754.748352 
	C299.761169,758.357483 301.622711,756.649780 303.366364,754.966797 
	C306.053833,755.023987 308.766907,754.868835 311.422699,755.188904 
	C315.233429,755.648193 318.989655,756.543579 322.793213,757.083557 
	C325.856171,757.518311 328.949280,757.796570 332.038757,757.977661 
	C338.319702,758.345825 344.606689,758.613464 350.892731,758.888062 
	C351.710449,758.923828 352.545959,758.808899 353.358124,758.673279 
	C357.525696,757.977295 361.723053,757.406250 365.840088,756.480652 
	C368.470367,755.889282 370.979309,754.758362 374.158752,753.655762 
	C374.471649,754.563904 374.960938,755.984009 375.661224,757.689575 
	C375.923889,758.432495 375.975555,758.890076 375.722656,760.028320 
	C375.566345,767.799316 375.714600,774.889526 375.862885,781.979797 
	C375.862885,785.434998 375.862885,788.890259 375.862885,792.642395 
	C374.150330,792.737793 372.702362,792.887024 371.254211,792.889038 
	C337.796661,792.935913 304.339050,792.935303 270.881683,793.033508 
	C265.613770,793.048950 262.429626,790.683228 261.064697,785.346741 
z"/>
<path fill="#3EDAFB" opacity="1.000000" stroke="none" 
	d="
M771.080688,430.585632 
	C770.373230,430.767883 769.612000,430.577301 768.669678,430.341400 
	C771.222168,437.384735 770.440247,437.404785 762.952759,438.335388 
	C757.291809,439.038940 752.295593,436.313202 747.510986,436.661865 
	C742.455994,437.030273 737.974060,435.450165 733.216614,435.523315 
	C727.453247,435.611908 721.731323,434.029938 715.844116,436.560791 
	C714.246521,437.247620 710.633789,433.609192 708.146240,431.695526 
	C707.064209,430.863037 706.487793,429.373199 705.179810,427.721191 
	C704.119202,422.025757 703.165466,416.797607 703.078491,411.555054 
	C702.850586,397.809113 702.958618,384.056610 703.044556,370.307434 
	C703.057678,368.206909 703.665039,366.110107 704.346436,364.120728 
	C706.036499,368.797729 708.305664,372.889404 713.407349,373.464752 
	C718.224792,374.008057 723.398987,374.457001 727.995850,373.290649 
	C739.959167,370.255219 750.155640,374.735016 760.578491,378.717010 
	C762.130310,377.080109 764.061523,375.042908 765.993347,373.474030 
	C765.996826,382.376831 765.921082,390.812469 766.042175,399.245270 
	C766.088806,402.491943 766.583130,405.732208 766.873474,408.975372 
	C766.934387,416.313354 766.992432,423.651917 771.080688,430.585632 
z"/>
<path fill="#38CBFA" opacity="1.000000" stroke="none" 
	d="
M226.366989,516.072876 
	C226.011749,496.956360 226.011749,477.898682 226.011749,458.841003 
	C226.473984,458.535889 226.936218,458.230774 227.398438,457.925659 
	C228.909042,459.245361 231.181625,460.281952 231.795700,461.934753 
	C234.197922,468.400330 242.612076,471.938385 248.285034,467.959229 
	C255.436737,462.942902 262.983063,464.532440 270.665649,465.389008 
	C276.287018,466.015747 281.972382,466.659698 287.595306,466.437683 
	C290.512146,466.322510 293.987762,468.404572 296.634338,465.264648 
	C296.709412,465.175507 298.346771,465.988678 298.775513,466.679230 
	C301.639221,471.291351 305.951904,471.342041 309.281036,466.773468 
	C310.307312,465.365112 311.405731,462.608521 313.052460,466.752258 
	C313.083954,467.091644 313.041626,467.050812 312.719116,467.122131 
	C311.641113,468.850616 310.885590,470.507812 310.130066,472.165009 
	C310.130035,472.165009 310.100739,472.081482 309.926392,472.245483 
	C309.644165,472.755493 309.536346,473.101471 309.428528,473.447418 
	C309.428497,473.447418 309.425354,473.342560 309.115448,473.400940 
	C307.886505,474.994080 306.967499,476.528839 306.048492,478.063599 
	C306.048492,478.063599 305.997437,478.009430 305.693726,478.107788 
	C304.973816,478.949829 304.557617,479.693573 304.141449,480.437286 
	C298.784607,484.851227 293.590393,489.483398 288.031097,493.625610 
	C280.550354,499.199371 280.869812,509.134003 288.773193,514.231384 
	C292.994080,516.953674 296.902435,520.160461 301.104736,523.462769 
	C294.720245,526.836182 288.446503,523.645752 282.415161,522.256165 
	C272.037689,519.865173 261.854156,518.717773 251.173553,519.528381 
	C242.978546,520.150330 234.297745,521.273682 226.366989,516.072876 
z"/>
<path fill="#49EEFC" opacity="1.000000" stroke="none" 
	d="
M697.202393,273.013824 
	C690.658813,272.539673 684.324402,272.216370 677.998169,271.776917 
	C675.534912,271.605835 673.089905,271.172791 671.412109,270.958221 
	C666.131104,271.320953 661.490234,271.739929 656.841187,271.869476 
	C655.973511,271.893677 654.331177,270.786926 654.305420,270.151093 
	C654.096680,264.996796 654.188232,259.830322 654.188232,254.667557 
	C654.763977,254.606781 655.339722,254.546021 655.915466,254.485260 
	C656.280518,255.747650 656.856995,256.990479 656.976013,258.275665 
	C657.698059,266.075775 664.048157,267.835785 671.429321,267.038055 
	C673.322449,266.833466 675.721619,265.955780 677.039062,266.766815 
	C681.306213,269.393646 685.256592,268.224152 689.359863,266.836761 
	C689.987305,266.624603 690.657166,266.178894 691.244751,266.265717 
	C695.387634,266.877930 699.492554,267.818512 703.651611,268.229523 
	C708.052124,268.664368 710.771057,271.371094 713.233337,274.505920 
	C715.677490,277.617645 717.753479,277.185455 720.805908,274.988159 
	C722.685425,273.635162 725.730652,273.598938 728.267334,273.531891 
	C732.167786,273.428833 736.098083,273.635864 739.984619,274.023224 
	C745.423401,274.565308 750.857727,275.249481 756.248718,276.144714 
	C760.826050,276.904846 765.995728,283.457092 765.998047,288.086487 
	C766.004272,300.745209 766.001282,313.403961 765.589966,326.534973 
	C761.839783,326.773132 758.498657,326.573608 755.163940,326.295837 
	C751.159790,325.962311 747.125549,325.036621 743.167908,325.305115 
	C735.943726,325.795319 728.771545,327.583099 721.567627,327.644165 
	C717.120483,327.681854 712.384216,326.077087 708.332458,324.082825 
	C706.744873,323.301453 706.769531,319.403748 705.856140,317.002808 
	C705.554993,316.211090 704.613892,315.662842 703.969299,314.546295 
	C703.383179,307.740204 702.793152,301.391113 702.203125,295.041992 
	C702.157593,290.645844 702.112061,286.249725 702.339111,281.119263 
	C702.733215,279.273956 702.854797,278.162994 702.831726,276.842712 
	C702.402100,276.455231 702.117004,276.277039 701.831970,276.098816 
	C701.831970,276.098816 701.928223,276.095001 701.809814,275.914307 
	C701.448608,275.500305 701.205811,275.266998 700.963013,275.033691 
	C700.963013,275.033691 701.000000,275.000000 700.838318,274.816223 
	C700.405518,274.441223 700.134460,274.249939 699.863403,274.058655 
	C699.863403,274.058655 699.954224,274.047028 699.764771,273.853485 
	C699.011108,273.454834 698.446960,273.249756 697.882751,273.044647 
	C697.882751,273.044647 697.414917,273.118286 697.202393,273.013824 
z"/>
<path fill="#3DD8FA" opacity="1.000000" stroke="none" 
	d="
M702.117310,295.499542 
	C702.793152,301.391113 703.383179,307.740204 703.722229,314.877014 
	C703.363892,331.005829 703.243958,346.346893 703.185913,361.688263 
	C703.182983,362.461670 703.714783,363.237091 703.997559,364.011597 
	C703.665039,366.110107 703.057678,368.206909 703.044556,370.307434 
	C702.958618,384.056610 702.850586,397.809113 703.078491,411.555054 
	C703.165466,416.797607 704.119202,422.025757 704.844910,427.638794 
	C706.292908,434.679016 707.585022,441.338806 708.848511,448.004028 
	C709.278625,450.273132 709.636841,452.555878 710.062378,455.231628 
	C704.452393,441.730713 702.172729,427.133575 702.089661,412.279694 
	C701.872864,373.506592 702.025940,334.731445 702.117310,295.499542 
z"/>
<path fill="#35C0F9" opacity="1.000000" stroke="none" 
	d="
M262.003662,696.002441 
	C261.854126,706.766785 261.704590,717.531128 261.321869,728.633118 
	C261.013275,697.674194 260.929932,666.377563 260.866180,635.080994 
	C260.838043,621.261902 260.934082,607.441711 260.783844,593.624146 
	C260.746307,590.171387 259.973419,586.726562 259.602051,582.770752 
	C259.665619,582.263367 260.007416,581.994019 260.259766,582.280273 
	C261.008759,585.132141 261.908508,587.693604 261.934875,590.264038 
	C262.077484,604.176392 262.003937,618.091064 262.004822,632.473267 
	C262.004395,653.961853 262.004028,674.982178 262.003662,696.002441 
z"/>
<path fill="#3AD1FA" opacity="1.000000" stroke="none" 
	d="
M479.991821,615.529175 
	C479.829865,625.109009 479.664642,634.220398 479.244934,643.656494 
	C478.901276,626.541626 478.754120,609.102295 478.736145,591.662781 
	C478.707672,564.079041 478.765808,536.495117 479.140015,508.451111 
	C479.492767,507.990906 479.982300,507.982117 479.982300,507.982117 
	C479.988739,524.343567 479.995178,540.705017 480.005676,557.535645 
	C480.002686,577.023499 479.995636,596.042175 479.991821,615.529175 
z"/>
<path fill="#42E3F9" opacity="1.000000" stroke="none" 
	d="
M479.984680,507.539734 
	C479.982300,507.982117 479.492767,507.990906 479.247955,507.992920 
	C478.916962,487.587524 478.812988,467.180176 478.751740,446.772675 
	C478.718842,435.818695 478.759308,424.864471 479.125397,413.450928 
	C479.484100,412.991486 479.978516,412.982361 479.978516,412.982361 
	C479.987610,417.348816 479.996674,421.715271 480.007965,426.919098 
	C480.010895,428.500458 480.011658,429.244446 480.012390,429.988434 
	C480.008972,431.382690 480.005585,432.776978 480.006226,434.589905 
	C480.002014,454.357422 479.993805,473.706329 479.987793,493.778015 
	C479.990295,494.670532 479.990601,494.840210 479.990845,495.009918 
	C479.989990,496.395355 479.989136,497.780823 479.991699,499.581787 
	C479.992462,502.363983 479.989777,504.730682 479.984680,507.539734 
z"/>
<path fill="#49EEFC" opacity="1.000000" stroke="none" 
	d="
M479.982025,412.515503 
	C479.978516,412.982361 479.484100,412.991486 479.236847,412.993530 
	C478.912933,388.634491 478.836273,364.273468 478.868896,339.454407 
	C479.146637,338.996155 479.315094,338.995911 479.736023,338.993774 
	C479.991302,348.349152 479.994049,357.706390 479.999451,367.532440 
	C479.996582,382.683685 479.991058,397.366180 479.982025,412.515503 
z"/>
<path fill="#49EEFC" opacity="1.000000" stroke="none" 
	d="
M766.954834,408.514648 
	C766.583130,405.732208 766.088806,402.491943 766.042175,399.245270 
	C765.921082,390.812469 765.996826,382.376831 765.996460,373.004700 
	C766.002563,363.709259 766.006165,355.351410 766.009766,346.993591 
	C766.009766,346.993591 766.436584,346.994843 766.650024,346.996002 
	C766.921021,367.349426 766.978638,387.701691 766.954834,408.514648 
z"/>
<path fill="#2C9EF7" opacity="1.000000" stroke="none" 
	d="
M375.942261,781.518494 
	C375.714600,774.889526 375.566345,767.799316 375.645477,760.367188 
	C375.922455,767.035950 375.972015,774.046570 375.942261,781.518494 
z"/>
<path fill="#30B2F9" opacity="1.000000" stroke="none" 
	d="
M573.907349,512.487427 
	C573.557495,509.603546 573.290039,506.262909 573.022278,502.475769 
	C573.151733,498.934082 573.281494,495.838837 573.622192,492.412598 
	C573.885437,498.731293 573.937622,505.380981 573.907349,512.487427 
z"/>
<path fill="#35C3FA" opacity="1.000000" stroke="none" 
	d="
M573.854736,606.560059 
	C573.356323,604.531372 572.936951,602.064331 572.956543,599.299927 
	C573.395508,599.002625 573.791565,599.006714 573.791504,599.006714 
	C573.838928,601.378418 573.886353,603.750061 573.854736,606.560059 
z"/>
<path fill="#32BBF9" opacity="1.000000" stroke="none" 
	d="
M326.489807,726.496399 
	C326.052002,723.898804 325.404755,720.855103 325.037201,717.778015 
	C324.807495,715.854797 324.999390,713.881165 325.010132,711.462646 
	C325.185455,710.995422 325.352692,710.995789 325.770844,710.995850 
	C326.147339,716.009094 326.272980,721.022644 326.489807,726.496399 
z"/>
<path fill="#2EA7F8" opacity="1.000000" stroke="none" 
	d="
M546.261963,743.816528 
	C547.202759,742.203064 542.792725,738.141968 548.764404,738.066833 
	C548.265625,739.920532 547.389648,741.755554 546.261963,743.816528 
z"/>
<path fill="#3AD1FA" opacity="1.000000" stroke="none" 
	d="
M310.403931,471.975403 
	C310.885590,470.507812 311.641113,468.850616 312.747986,467.127197 
	C312.292114,468.635925 311.484955,470.210876 310.403931,471.975403 
z"/>
<path fill="#30B2F9" opacity="1.000000" stroke="none" 
	d="
M573.899292,561.524841 
	C573.568115,561.494507 573.316528,561.024353 573.034424,560.283203 
	C573.134521,557.906372 573.265198,555.800476 573.602661,553.374512 
	C573.866028,555.731262 573.922485,558.408081 573.899292,561.524841 
z"/>
<path fill="#30B2F9" opacity="1.000000" stroke="none" 
	d="
M573.004150,585.011475 
	C573.004150,585.011475 573.403076,585.006470 573.602539,585.006653 
	C573.855591,587.378052 573.909180,589.749329 573.680237,592.560913 
	C573.397766,593.001343 573.000122,592.996033 573.000122,592.996033 
	C572.999634,591.607483 572.999207,590.218872 572.998413,588.040466 
	C573.000122,586.504211 573.002136,585.757874 573.004150,585.011475 
z"/>
<path fill="#3AD1FA" opacity="1.000000" stroke="none" 
	d="
M306.334595,477.903809 
	C306.967499,476.528839 307.886505,474.994080 309.159546,473.429352 
	C308.549255,474.847595 307.584991,476.295807 306.334595,477.903809 
z"/>
<path fill="#2C9EF7" opacity="1.000000" stroke="none" 
	d="
M702.272583,627.498901 
	C702.488159,628.833984 702.605286,630.573914 702.550293,632.600220 
	C702.310181,631.225647 702.242188,629.564758 702.272583,627.498901 
z"/>
<path fill="#35C3FA" opacity="1.000000" stroke="none" 
	d="
M572.788086,593.203613 
	C573.000122,592.996033 573.397766,593.001343 573.596558,592.998596 
	C573.843933,593.747742 573.892395,594.499634 573.668579,595.624634 
	C573.396240,595.997742 572.999451,596.002197 572.999451,596.002197 
	C572.858337,595.138550 572.717224,594.274841 572.788086,593.203613 
z"/>
<path fill="#2C9EF7" opacity="1.000000" stroke="none" 
	d="
M702.302246,683.485474 
	C702.519897,684.823364 702.637573,686.567749 702.587158,688.601440 
	C702.346802,687.224487 702.274536,685.558228 702.302246,683.485474 
z"/>
<path fill="#30B2F9" opacity="1.000000" stroke="none" 
	d="
M573.905640,528.535400 
	C573.692444,527.177307 573.559570,525.404907 573.625549,523.350220 
	C573.878296,524.752380 573.932129,526.436646 573.905640,528.535400 
z"/>
<path fill="#2EA7F8" opacity="1.000000" stroke="none" 
	d="
M549.362183,737.937256 
	C549.567749,736.883606 550.035095,735.621155 550.819336,734.198608 
	C550.632080,735.268494 550.128052,736.498474 549.362183,737.937256 
z"/>
<path fill="#35C3FA" opacity="1.000000" stroke="none" 
	d="
M774.393921,576.097351 
	C775.202515,575.484863 776.336670,574.794861 777.837158,574.136597 
	C777.042175,574.785461 775.880798,575.402649 774.393921,576.097351 
z"/>
<path fill="#30B2F9" opacity="1.000000" stroke="none" 
	d="
M573.656494,638.519348 
	C573.465637,637.470032 573.407043,636.034180 573.521729,634.333557 
	C573.726196,635.423462 573.757446,636.778137 573.656494,638.519348 
z"/>
<path fill="#35C3FA" opacity="1.000000" stroke="none" 
	d="
M771.622070,578.320129 
	C772.046021,577.680969 772.754761,576.916077 773.809082,576.129761 
	C773.405457,576.803650 772.656189,577.499023 771.622070,578.320129 
z"/>
<path fill="#3DD8FA" opacity="1.000000" stroke="none" 
	d="
M702.976318,277.052032 
	C702.854797,278.162994 702.733215,279.273956 702.416809,280.655151 
	C702.154175,279.891205 702.086426,278.857025 702.283081,277.431641 
	C702.547424,277.040375 702.976318,277.052032 702.976318,277.052032 
z"/>
<path fill="#49EEFC" opacity="1.000000" stroke="none" 
	d="
M259.354034,424.836182 
	C259.200195,425.614838 258.829865,426.629730 258.147461,427.801880 
	C258.269470,426.996918 258.703522,426.034637 259.354034,424.836182 
z"/>
<path fill="#30B2F9" opacity="1.000000" stroke="none" 
	d="
M573.000000,596.376709 
	C572.999451,596.002197 573.396240,595.997742 573.594177,595.995483 
	C573.849365,596.749634 573.906616,597.505981 573.877686,598.634521 
	C573.791565,599.006714 573.395508,599.002625 573.197510,599.000488 
	C572.999756,598.249268 573.000122,597.500244 573.000000,596.376709 
z"/>
<path fill="#30B2F9" opacity="1.000000" stroke="none" 
	d="
M573.901123,566.601074 
	C573.700989,566.129700 573.580078,565.298828 573.639893,564.259155 
	C573.873901,564.780762 573.927185,565.511169 573.901123,566.601074 
z"/>
<path fill="#2C9EF7" opacity="1.000000" stroke="none" 
	d="
M702.282471,654.435547 
	C702.486877,654.890869 702.592773,655.689514 702.538818,656.690796 
	C702.314026,656.188538 702.249023,655.483704 702.282471,654.435547 
z"/>
<path fill="#3AD1FA" opacity="1.000000" stroke="none" 
	d="
M304.424744,480.291504 
	C304.557617,479.693573 304.973816,478.949829 305.726257,478.125519 
	C305.611023,478.745209 305.159546,479.445496 304.424744,480.291504 
z"/>
<path fill="#4BF3FD" opacity="1.000000" stroke="none" 
	d="
M698.093140,273.258820 
	C698.446960,273.249756 699.011108,273.454834 699.767212,273.899200 
	C699.407166,273.916626 698.855347,273.694824 698.093140,273.258820 
z"/>
<path fill="#30B2F9" opacity="1.000000" stroke="none" 
	d="
M573.915894,488.629883 
	C573.730652,488.420471 573.626465,487.903839 573.679321,487.230133 
	C573.889832,487.489563 573.943420,487.906128 573.915894,488.629883 
z"/>
<path fill="#2C9EF7" opacity="1.000000" stroke="none" 
	d="
M702.490112,592.615723 
	C702.689575,592.990234 702.697083,593.641174 702.545898,594.577026 
	C702.357544,594.205322 702.327881,593.548767 702.490112,592.615723 
z"/>
<path fill="#3EDAFB" opacity="1.000000" stroke="none" 
	d="
M776.672729,433.055359 
	C776.427429,433.203247 775.868835,433.243256 775.174561,433.077820 
	C775.479004,432.897430 775.919250,432.922455 776.672729,433.055359 
z"/>
<path fill="#4BF3FD" opacity="1.000000" stroke="none" 
	d="
M701.035034,275.290771 
	C701.205811,275.266998 701.448608,275.500305 701.805664,275.962280 
	C701.648926,275.976624 701.377991,275.762238 701.035034,275.290771 
z"/>
<path fill="#3AD1FA" opacity="1.000000" stroke="none" 
	d="
M309.649048,473.278992 
	C309.536346,473.101471 309.644165,472.755493 309.969910,472.237305 
	C310.081696,472.413574 309.975616,472.762085 309.649048,473.278992 
z"/>
<path fill="#38CBFA" opacity="1.000000" stroke="none" 
	d="
M302.197144,524.583679 
	C301.996124,524.638916 301.692291,524.421021 301.262024,523.947266 
	C301.455170,523.897766 301.774780,524.104126 302.197144,524.583679 
z"/>
<path fill="#38CBFA" opacity="1.000000" stroke="none" 
	d="
M303.165710,525.610229 
	C302.965027,525.659363 302.670959,525.432983 302.255188,524.950928 
	C302.446442,524.908447 302.759369,525.121582 303.165710,525.610229 
z"/>
<path fill="#4BF3FD" opacity="1.000000" stroke="none" 
	d="
M702.831726,276.842712 
	C702.976318,277.052032 702.547424,277.040375 702.333069,277.043549 
	C702.039673,276.898224 701.960571,276.749695 701.856750,276.349976 
	C702.117004,276.277039 702.402100,276.455231 702.831726,276.842712 
z"/>
<path fill="#38CBFA" opacity="1.000000" stroke="none" 
	d="
M304.093323,526.663452 
	C303.898987,526.702942 303.623474,526.467468 303.228424,525.983582 
	C303.409973,525.952942 303.711029,526.170715 304.093323,526.663452 
z"/>
<path fill="#38CBFA" opacity="1.000000" stroke="none" 
	d="
M305.030151,527.693604 
	C304.845856,527.732910 304.580811,527.507141 304.185913,527.050659 
	C304.353882,527.022827 304.651611,527.225647 305.030151,527.693604 
z"/>
<path fill="#4BF3FD" opacity="1.000000" stroke="none" 
	d="
M699.960693,274.304443 
	C700.134460,274.249939 700.405518,274.441223 700.822144,274.835327 
	C700.664429,274.875549 700.361206,274.712921 699.960693,274.304443 
z"/>
<path fill="#35C3FA" opacity="1.000000" stroke="none" 
	d="
M771.079468,578.894897 
	C770.899902,578.991028 770.766235,578.578430 770.766235,578.578430 
	C770.766235,578.578430 771.090149,578.352478 771.244873,578.384521 
	C771.399597,578.416626 771.258972,578.798828 771.079468,578.894897 
z"/>
<path fill="#2C9EF7" opacity="1.000000" stroke="none" 
	d="
M702.303467,651.285889 
	C702.639343,651.247192 702.706543,651.471436 702.484009,651.832764 
	C702.382874,651.917297 702.223389,651.496277 702.303467,651.285889 
z"/>
<path fill="#35C0F9" opacity="1.000000" stroke="none" 
	d="
M258.749542,581.239990 
	C258.509521,581.009583 258.269531,580.779175 257.996033,580.292297 
	C257.962524,580.035828 258.017059,579.994873 258.236420,580.113831 
	C258.693237,580.442383 258.885956,580.687195 258.963135,581.035706 
	C258.892303,581.104187 258.749542,581.239990 258.749542,581.239990 
z"/>
<path fill="#35C0F9" opacity="1.000000" stroke="none" 
	d="
M259.480713,582.378113 
	C259.052643,582.280273 258.888794,582.018188 258.776886,581.473267 
	C258.749542,581.239990 258.892303,581.104187 259.158630,581.173218 
	C259.667908,581.455017 259.862061,581.705627 260.007416,581.994019 
	C260.007416,581.994019 259.665619,582.263367 259.480713,582.378113 
z"/>
<path fill="#3EDAFB" opacity="1.000000" stroke="none" 
	d="
M775.026123,432.686523 
	C774.818054,432.844391 774.549927,432.688110 774.161743,432.300354 
	C774.319031,432.222900 774.627075,432.324097 775.026123,432.686523 
z"/>
<path fill="#43E5FD" opacity="1.000000" stroke="none" 
	d="
M262.024475,356.021942 
	C262.024475,337.975067 262.024475,319.928192 262.024475,300.649872 
	C263.811584,302.351898 264.655182,303.030975 265.347961,303.839294 
	C267.153015,305.945343 268.940765,306.269531 270.517090,303.720032 
	C272.713348,300.167847 275.667328,299.806580 279.555939,300.514282 
	C282.498901,301.049896 285.672821,300.316254 289.460815,300.108032 
	C289.650787,300.422882 290.278229,301.462860 291.661774,303.756042 
	C293.056641,301.410522 294.154053,299.565155 295.346161,297.560547 
	C297.423279,298.952667 298.706085,299.812439 299.988892,300.672211 
	C300.032227,300.289062 300.075562,299.905945 300.118896,299.522797 
	C302.594452,299.522797 305.124298,299.846802 307.532318,299.443573 
	C310.791504,298.897797 314.006256,297.941925 317.152802,296.898712 
	C323.662964,294.740326 324.986115,295.554077 324.991669,302.145996 
	C325.003113,315.789520 324.993866,329.433014 324.633820,343.662292 
	C323.535065,346.879974 322.309662,349.484802 322.161133,352.149658 
	C321.883942,357.122345 319.069305,358.840942 314.724640,358.972992 
	C301.911255,359.362457 289.087006,359.489227 276.284088,360.084900 
	C270.928467,360.334076 265.885406,360.540253 262.024475,356.021942 
M306.013672,301.386566 
	C305.565735,301.604431 305.117798,301.822296 304.669830,302.040161 
	C304.847809,302.248871 305.148163,302.658173 305.185059,302.635590 
	C305.599365,302.382904 305.973145,302.063721 306.013672,301.386566 
z"/>
<path fill="#3EDAFB" opacity="1.000000" stroke="none" 
	d="
M262.020752,356.488281 
	C265.885406,360.540253 270.928467,360.334076 276.284088,360.084900 
	C289.087006,359.489227 301.911255,359.362457 314.724640,358.972992 
	C319.069305,358.840942 321.883942,357.122345 322.161133,352.149658 
	C322.309662,349.484802 323.535065,346.879974 324.629791,344.131958 
	C324.990509,362.033234 324.995941,380.050690 324.995117,398.537598 
	C324.125610,400.059723 322.918854,400.987122 322.478973,402.194031 
	C321.804108,404.045685 322.286377,407.189819 321.160858,407.833832 
	C318.415802,409.404541 315.064850,410.015778 311.891418,410.709503 
	C308.952026,411.352081 305.921204,411.567291 302.941559,412.039581 
	C301.816772,412.217896 300.621185,413.031830 299.630127,412.804657 
	C289.628571,410.511932 279.595001,412.070251 269.564301,412.067139 
	C267.271301,412.066437 264.979309,408.889648 262.357971,407.095947 
	C262.024414,405.941010 262.019653,404.864807 262.286621,403.331543 
	C262.382690,402.255585 262.207031,401.636658 262.031403,401.017700 
	C262.026611,386.330017 262.021851,371.642334 262.020752,356.488281 
z"/>
<path fill="#3AD1FA" opacity="1.000000" stroke="none" 
	d="
M262.025940,401.345154 
	C262.207031,401.636658 262.382690,402.255585 262.294678,402.928467 
	C262.027557,402.545807 262.024017,402.109222 262.025940,401.345154 
z"/>
<path fill="#49EEFC" opacity="1.000000" stroke="none" 
	d="
M480.655273,245.096527 
	C480.696136,245.469543 480.611664,245.733414 480.527161,245.997284 
	C480.420441,245.914215 480.210602,245.803558 480.224213,245.752686 
	C480.294678,245.489182 480.422272,245.240952 480.655273,245.096527 
z"/>
<path fill="#43E5FD" opacity="1.000000" stroke="none" 
	d="
M766.007812,346.525848 
	C766.006165,355.351410 766.002563,363.709259 765.995850,372.536407 
	C764.061523,375.042908 762.130310,377.080109 760.578491,378.717010 
	C750.155640,374.735016 739.959167,370.255219 727.995850,373.290649 
	C723.398987,374.457001 718.224792,374.008057 713.407349,373.464752 
	C708.305664,372.889404 706.036499,368.797729 704.346436,364.120728 
	C703.714783,363.237091 703.182983,362.461670 703.185913,361.688263 
	C703.243958,346.346893 703.363892,331.005829 703.718323,315.333984 
	C704.613892,315.662842 705.554993,316.211090 705.856140,317.002808 
	C706.769531,319.403748 706.744873,323.301453 708.332458,324.082825 
	C712.384216,326.077087 717.120483,327.681854 721.567627,327.644165 
	C728.771545,327.583099 735.943726,325.795319 743.167908,325.305115 
	C747.125549,325.036621 751.159790,325.962311 755.163940,326.295837 
	C758.498657,326.573608 761.839783,326.773132 765.589050,327.003662 
	C766.001953,333.352692 766.003845,339.705414 766.007812,346.525848 
z"/>
<path fill="#38CEF9" opacity="1.000000" stroke="none" 
	d="
M480.319183,429.915527 
	C480.011658,429.244446 480.010895,428.500458 480.012085,427.384705 
	C480.218018,427.956146 480.421997,428.899384 480.319183,429.915527 
z"/>
<path fill="#3DD8FA" opacity="1.000000" stroke="none" 
	d="
M572.981384,443.608276 
	C572.943604,444.827820 572.894592,445.746979 572.845581,446.666107 
	C572.591248,446.661224 572.336914,446.656342 572.082581,446.651428 
	C572.082581,445.431519 572.076294,444.211517 572.091187,442.991791 
	C572.092896,442.851990 572.213074,442.713593 572.278320,442.574554 
	C572.508911,442.819031 572.739502,443.063477 572.981384,443.608276 
z"/>
<path fill="#3DD8FA" opacity="1.000000" stroke="none" 
	d="
M572.594238,452.850586 
	C572.619385,452.873383 572.569031,452.827820 572.594238,452.850586 
z"/>
<path fill="#35C3FA" opacity="1.000000" stroke="none" 
	d="
M480.117615,494.904541 
	C479.990601,494.840210 479.990295,494.670532 479.991028,494.246155 
	C480.331604,494.200287 480.415680,494.469513 480.117615,494.904541 
z"/>
<path fill="#30AEF9" opacity="1.000000" stroke="none" 
	d="
M262.341705,696.089111 
	C262.004028,674.982178 262.004395,653.961853 262.359558,632.537354 
	C263.760468,633.520996 265.563660,634.830505 265.716919,636.310852 
	C266.274963,641.700317 269.659424,642.219604 273.881683,641.805054 
	C275.180450,641.677551 276.478363,641.503113 277.780548,641.454895 
	C283.663269,641.237183 289.552612,641.145386 295.427185,640.798828 
	C296.831848,640.715881 298.222656,639.316467 299.561951,639.404419 
	C304.065308,639.699890 308.532532,640.693604 313.032806,640.843567 
	C316.933990,640.973572 321.105865,641.109253 321.384766,635.056213 
	C321.479919,632.990967 323.725891,631.024841 324.989075,629.013428 
	C324.993500,651.699036 324.997925,674.384705 324.996216,697.540039 
	C324.440460,698.989136 323.619659,699.909668 323.391785,700.958923 
	C322.692047,704.181213 318.199951,707.676880 315.340515,706.487366 
	C306.818726,702.942200 298.199646,705.514526 289.620514,705.606506 
	C288.323914,705.620422 286.986908,705.658386 285.734863,705.383423 
	C280.411316,704.214478 275.438904,701.378906 269.564117,702.776306 
	C268.383179,703.057190 266.472595,700.953735 265.140533,699.693665 
	C264.122192,698.730408 263.485962,697.363220 262.341705,696.089111 
z"/>
<path fill="#32BBF9" opacity="1.000000" stroke="none" 
	d="
M324.992676,628.543335 
	C323.725891,631.024841 321.479919,632.990967 321.384766,635.056213 
	C321.105865,641.109253 316.933990,640.973572 313.032806,640.843567 
	C308.532532,640.693604 304.065308,639.699890 299.561951,639.404419 
	C298.222656,639.316467 296.831848,640.715881 295.427185,640.798828 
	C289.552612,641.145386 283.663269,641.237183 277.780548,641.454895 
	C276.478363,641.503113 275.180450,641.677551 273.881683,641.805054 
	C269.659424,642.219604 266.274963,641.700317 265.716919,636.310852 
	C265.563660,634.830505 263.760468,633.520996 262.359619,632.068970 
	C262.003937,618.091064 262.077484,604.176392 261.934875,590.264038 
	C261.908508,587.693604 261.008759,585.132141 260.259766,582.280273 
	C259.862061,581.705627 259.667908,581.455017 259.229462,581.104736 
	C258.885956,580.687195 258.693237,580.442383 258.265472,580.095886 
	C258.899933,579.325562 260.362183,578.054504 260.457977,578.150269 
	C264.992981,582.684143 270.205811,580.297546 275.230499,579.732239 
	C276.352417,579.606018 278.054047,579.072083 278.521240,579.593262 
	C281.456390,582.867249 284.965607,583.088684 288.871216,582.209229 
	C291.165192,581.692627 293.487640,581.302673 296.772888,580.666992 
	C298.218567,582.460327 300.095642,581.730530 302.904388,579.364136 
	C305.334686,577.316711 309.427094,575.359985 312.174042,575.997009 
	C316.669342,577.039429 319.872437,577.468018 322.212219,572.354004 
	C326.452789,591.057434 324.523651,609.628784 324.992676,628.543335 
z"/>
<path fill="#32BBF9" opacity="1.000000" stroke="none" 
	d="
M795.603760,569.246155 
	C796.011841,570.033691 796.101440,570.710876 796.191040,571.388123 
	C794.980286,571.308899 793.769531,571.229675 792.558777,571.150452 
	C792.533203,570.710999 792.507629,570.271606 792.482056,569.832153 
	C793.416504,569.600037 794.350891,569.367981 795.603760,569.246155 
z"/>
<path fill="#35C3FA" opacity="1.000000" stroke="none" 
	d="
M572.790100,585.214722 
	C573.002136,585.757874 573.000122,586.504211 572.995850,587.623840 
	C572.854370,587.137390 572.715210,586.277710 572.790100,585.214722 
z"/>
<path fill="#49EEFC" opacity="1.000000" stroke="none" 
	d="
M306.185730,301.574524 
	C305.973145,302.063721 305.599365,302.382904 305.185059,302.635590 
	C305.148163,302.658173 304.847809,302.248871 304.669830,302.040161 
	C305.117798,301.822296 305.565735,301.604431 306.185730,301.574524 
z"/>
</svg>